<svg xmlns="http://www.w3.org/2000/svg" viewBox="0 0 130.75 115.25"><defs><style>.cls-1{fill:#fff;}</style></defs><g id="レイヤー_2" data-name="レイヤー 2"><g id="レイヤー_1-2" data-name="レイヤー 1"><path class="cls-1" d="M30.67,51.55c-1.37.34-1.51,1-2.86,1.32-1.18.25-2.78,1.06-4,.39-.73-.67-.25-2-.14-2.95.28-.05.14-.5.42-.56,0-.22-.14-.67.25-.53-.08-.62.23-.87.42-1.21A7,7,0,0,1,25.26,47a3,3,0,0,0,.53-1.1c-.79,0-1.07.68-1.63,1.1A28.91,28.91,0,0,0,21.21,50a6.75,6.75,0,0,1-1.09,1,13.93,13.93,0,0,1-1.74,2.27c-.76-.17-.81.37-1.49.28-.08-.39-.47-.67,0-.95.06-.4.09-.82.42-.93a10,10,0,0,0,.93-1.91c.51-.42.65-1.26,1.09-1.74.12-.78.4-1.4.54-2.16-.59-.31-1.21.4-1.63.68a4.27,4.27,0,0,0-1.35,1.09,3.62,3.62,0,0,0-1.34,1.21c-.68.11-.73.87-1.49.92a8.52,8.52,0,0,1-1.88,1.91c0,.25-.28.39-.39.53s-.14.51-.42.54c-.12.5-.59.67-.79,1.06-.76-.11-1.37.4-1.77-.11a2,2,0,0,0,0-.42.74.74,0,0,1,.28-.53c.65-.68.87-2,1.49-3,.22-.7.67-1.2.93-1.88a2.73,2.73,0,0,0,.36-.87c.17-.78.39-1.15.73-2.47.25-.61-.53-.16-.42-.67-.11-.64.59-.51.56-1.07.48,0,.39-.67.67-.95,0-.14.26-.08.26-.25H14c1.32.45.64,2.75-.14,3.51,0,.3-.14.64-.14.95a3.31,3.31,0,0,0-.31,1c.05.4-.37.79-.37,1.41.09.33.37-.26.68-.12.11-.25.5-.22.53-.56a2,2,0,0,0,1.21-.92A9.76,9.76,0,0,0,16.75,46c.4-.33,1-.47,1.24-1,1.2-.17,1.71-1.07,2.94-1.21,1,.87.28,2.53.14,3.79,0,.31.37-.17.54-.14a.72.72,0,0,1,.42-.42c.17-.39.59-.56.92-.79.48-.67,1.38-.87,1.77-1.62,1-.31,1.57-1.13,2.56-1.49,1,.56.59,2.24,0,3-.37,1.43-1.35,2.25-1.77,3.62A4.38,4.38,0,0,0,25,51.91c1,.48,1.73-.47,2.69-.53.14-.08.14-.31.42-.28.17-.17.45-.17.67-.25A10.34,10.34,0,0,0,30,50.29c.7-.4.51-.79,1.32-1,.76-.62,2.92-3.17,2.52-.28C33,49.44,31.6,51.21,30.67,51.55Z"/><path class="cls-1" d="M49,49c-.48.25-1,1-1.46,1.17s-.37.43-.85.68-.84.62-1.31.87a7.76,7.76,0,0,0-.82.25c-.28.17-.33.31-.67.28-.48.48-1.35.34-1.74.9-1,.11-1.66.05-2.58.22,0-.28-.56,0-.79-.14,0-.33-.53-.19-.56-.53-.25,0,0-.59-.39-.53s-.51.33-.82.39a6.67,6.67,0,0,0-1.34.67c-.2.14-.93.28-1.35.56a5.51,5.51,0,0,1-1.74.4.72.72,0,0,0-.67-.14,2.57,2.57,0,0,1-.68-2.7,3.27,3.27,0,0,0,.68-1.48c.42-.37.67-.93,1.06-1.35.68-.84,1.57-1.49,2.3-2.27a3.47,3.47,0,0,0,1.21-1.1c.7,0,.9-.53,1.35-.78s1.2-.34,1.48-.82c1.24-.17,2-.78,3.23-.95,1,.19,1.4,1.18,1.07,2.3-.23.25-.39.56-.79.67.06.28-.28.2-.28.4s-.34.11-.53.13c-.51-.7.36-1,.39-1.62-.67-.34-1.15.28-2,.14a8.22,8.22,0,0,1-1.35.53c-.39.23-.61.59-1.06.67-.76.45-1.27,1.18-2.16,1.49a16,16,0,0,1-1.21,1.49c-.34.11-.42.48-.67.67s-.28.62-.68.68a12.18,12.18,0,0,0-.81,2.41c.81.48,1.54-.23,2.3-.25,0-.26.23-.17.39-.28a4.64,4.64,0,0,0,.4-.26c.25-.14.84-.14.81-.56a1,1,0,0,0,.81-.14c.31,0,.26-.45.68-.39.11-.56.47-.87.53-1.49.28-.31.67-.5.67-1.06,1.1-.37,1.13-1.77,2.7-1.63.33.14.33.59.53.81.09.84-.64.87-.67,1.63A2.76,2.76,0,0,0,40.69,50a2.41,2.41,0,0,0-.81.67c-.2.2-.73.28-.54.81-.14.48.59.14.68.4.22-.12.56-.06.81-.12.45-.14.79,0,1.21-.25s.92-.34,1.35-.53c.81-.37,1.59-.7,2.41-1.07a3.84,3.84,0,0,1,1.12-.81c.56-.31,1-.7,1.68-1.07C48.6,48,48.94,49,49,49Z"/><path class="cls-1" d="M59.19,48.6s.36,1.07.36,1.07a10.33,10.33,0,0,1-1,1c-1.46.93-2.83,2.13-4.71,2.55a11.31,11.31,0,0,1-2.56-.14,1.42,1.42,0,0,1-.67-.14c-.06,0,0-.11-.14-.14-.37,0-.56-.5-.81-.81a4.41,4.41,0,0,1,.28-1.46,28.17,28.17,0,0,1,2-2.69,4.47,4.47,0,0,0-.43-1.77c-.81.2-3.14,3.53-3.92,3.76,0,0-1-.73-1-.7.43-.37,1.18-1.35,1.55-1.63a17.71,17.71,0,0,1,2.24-2.55c0-.31.93-.87,1.15-1.07s0-.7.65-.51.56,1,.67,1.77c.23.34.31.85.53,1.21-.11.65.43.93.43,1.49-.26,0-.2.39-.28.53a4.7,4.7,0,0,1-.4.39A9.65,9.65,0,0,1,52,50.51c-.14.39-.68.39-.54,1.07a4.12,4.12,0,0,0,2.28.28c1.57-.17,3-1.43,4.06-2.22C58.18,49.28,59.19,48.63,59.19,48.6Z"/><path class="cls-1" d="M56,51.75a6.27,6.27,0,0,0-.06-1.32c1.12-.31,2.44-1.69,3.4-2.19,1.18-.76,2.77-2.19,4-2.84.67-.39,1.26-.87,1.91-1.26a4.6,4.6,0,0,1,1.88-.92,6,6,0,0,0,.53.67c.14.48-.23.87-.39,1.21a17.4,17.4,0,0,1-1,1.51c0,.06.06.22,0,.25A17.17,17.17,0,0,0,64.69,50c-.37.34-.82.62-.93,1.21.31.39.79-.2,1.35,0,1.18-.28,2.44-.62,3.62-.93,1.34-.62,2.78-1.23,4-2,0,.58.11,1.31-.08,1.15-.31.11-.73.59-1,.7-.09,0-.34.25-.43.25a2.24,2.24,0,0,0-.39.14c-.45.2-.64.51-1,.7a1.16,1.16,0,0,1-.42.14,8.58,8.58,0,0,1-.93.37c-.3.08-.39.17-.81.28a7.2,7.2,0,0,0-1.88.64c-1.51.17-3.17,1-4.85.79-.54,0-1-.37-1.63-.39a3.48,3.48,0,0,0-1.35-1,1.63,1.63,0,0,1,0-1.15c-.42-.11-.42.2-.67.25-.09.2-.51,0-.53.29C56.41,51.66,56,51.86,56,51.75Zm6.28-1.27A7.44,7.44,0,0,0,64,47.85c.37-.15.48-1.1.81-1.24,0-.31,0-.51.29-.53,0-.17-.06-.34-.29-.28,0,.19-.22.22-.25.39-1,.25-1.12,1.29-2.13,1.51a40.07,40.07,0,0,1-3.56,2.7c.67.56,1.09,1.29,2.27,1.15A1.86,1.86,0,0,0,62.27,50.48Z"/><path class="cls-1" d="M80.23,43.75c-1.2.31-1.54,1.51-2.83,1.74a13.56,13.56,0,0,1-1.49,1.77c-.11.08-.33.08-.53.25a7.41,7.41,0,0,1-1.21,1.09c-.36.62-1.12.84-1.2,1.74-.82.23-1.16,1-1.63,1.63-.2.25-.68.53-.68.81s-.78.93-.84.93c-.45,0-.47.42-.95.42-.25,0-.37-.56-.37-.84,0-1,1-1.49,1.35-2.27.56-.71,1-2.14,1.49-2.17a.76.76,0,0,1,.42-.67,40.33,40.33,0,0,1,3.09-4c.53-.22.53-1,1.06-1.21.84-1,1.57-1.93,2.7-3.22.11-.11.33-.17.42-.28s0-.28.11-.4c.36-.39.87-.7,1.23-1.06s.68-.93,1.07-1.35a31.45,31.45,0,0,1,3.65-3.25.46.46,0,0,0,.28.11c.17,0,.34-.09.48-.09s.3,0,.3.23c0,.59-.47.7-.67,1.09-.7.31-.53,1.41-1.74,1.49-.36.53-1.68,1.71-1.68,1.82l-.12,0s-.25,0-.25.16,0,.14,0,.17-1.6,1.91-2,1.91c-.11,0-.11.34-.17.42s-.42.2-.42.28,0,.14,0,.2-.7.17-.7.62c0,.05,0,.08,0,.11a1,1,0,0,0-.7.81c-.76.11-.73,1-1.46,1.21a3.4,3.4,0,0,1-1.2,1.88c-.26.11-.42.2-.42.53a.54.54,0,0,0,.16.06A9.08,9.08,0,0,0,77,44.42a.22.22,0,0,0,.14,0c.39,0,.53-.67.92-.7s.73-.7,1.21-.82c.78-.42,1.32-1.12,2.3-1.34.2.31.45.53.67.81,0,.62-.53,1-.53,1.32s-1.12,1.66-1.23,1.77a3.68,3.68,0,0,0-.79,1.34c-.62.31-.73,1.35-1.49,2-.42.76-.87,1.49-1.34,2.17a.39.39,0,0,0-.06.14c0,.16.17.28.17.33s0,.06-.11.06a1,1,0,0,0-.28.42.93.93,0,0,0,.89.45c.4,0,.73-.11,1.18-.11a11.89,11.89,0,0,1,1.52-.62c.64-.2,1.18-.81,1.91-1.12a4.38,4.38,0,0,0,1.31-1,3.73,3.73,0,0,1,1.44-1,.61.61,0,0,1,.53.62c0,.81-1.15,1.4-1.74,1.9a4.07,4.07,0,0,1-1.32.87c-1.6.68-3.34,1.72-5.3,1.72-.87,0-1.8-.23-1.8-1.13,0-.59.17-.92.17-1.62.39-.09.22-.76.67-.82a.15.15,0,0,1,0-.11c0-.51.62-.9.85-1.24s0-.64.81-1.34c.2-.73.81-1.07,1.07-1.74A8.48,8.48,0,0,0,80.23,43.75Z"/><path class="cls-1" d="M21.86,82.52c-1.38.33-1.52,1-2.86,1.32-1.18.25-2.78,1.06-4,.39-.73-.67-.26-2-.14-3,.28,0,.14-.5.42-.56,0-.22-.14-.67.25-.53A1.59,1.59,0,0,1,15.91,79a8.86,8.86,0,0,1,.53-1.07A2.79,2.79,0,0,0,17,76.82c-.79,0-1.07.67-1.63,1.09A30,30,0,0,0,12.4,81a6.75,6.75,0,0,1-1.09,1,13.93,13.93,0,0,1-1.74,2.27c-.76-.17-.82.36-1.49.28-.08-.39-.48-.67,0-1,.06-.4.09-.82.42-.93a10.25,10.25,0,0,0,.93-1.91c.5-.42.64-1.26,1.09-1.74.12-.78.4-1.4.54-2.16-.59-.31-1.21.39-1.63.67a4.33,4.33,0,0,0-1.35,1.1,3.8,3.8,0,0,0-1.35,1.2c-.67.12-.73.87-1.48.93a9,9,0,0,1-1.88,1.91c0,.25-.28.39-.4.53s-.14.51-.42.54c-.11.5-.59.67-.78,1.06C1,84.65.39,85.15,0,84.65a2,2,0,0,0,0-.42.7.7,0,0,1,.28-.53c.65-.68.87-2,1.49-3,.22-.7.67-1.21.92-1.88A2.56,2.56,0,0,0,3.06,78c.17-.78.39-1.15.73-2.47.25-.62-.54-.17-.42-.67-.12-.65.59-.51.56-1.07.48-.05.39-.67.67-1,0-.14.25-.09.25-.25h.29c1.31.44.64,2.75-.15,3.5,0,.31-.14.65-.14,1a3.64,3.64,0,0,0-.3,1c0,.39-.37.79-.37,1.4.09.34.37-.25.67-.11.12-.25.51-.22.54-.56a2,2,0,0,0,1.2-.93A8.47,8.47,0,0,0,7.94,77c.39-.34,1-.48,1.24-.95,1.2-.17,1.71-1.07,2.94-1.21,1,.87.28,2.53.14,3.79,0,.31.37-.17.54-.14a.72.72,0,0,1,.42-.42c.17-.4.59-.56.92-.79.48-.67,1.38-.87,1.77-1.63,1-.3,1.57-1.12,2.55-1.48,1,.56.59,2.24,0,3-.36,1.43-1.34,2.25-1.76,3.62a4.38,4.38,0,0,0-.54,2.16c1,.48,1.74-.48,2.7-.53.14-.09.14-.31.42-.28.17-.17.45-.17.67-.26a7.85,7.85,0,0,0,1.21-.56c.7-.39.5-.78,1.32-1,.75-.62,2.92-3.17,2.52-.28C24.22,80.41,22.79,82.18,21.86,82.52Z"/><path class="cls-1" d="M40.21,80c-.47.26-1,1-1.46,1.18s-.36.42-.84.67-.84.62-1.32.88a8.36,8.36,0,0,0-.81.25c-.28.17-.34.31-.67.28-.48.48-1.35.34-1.74.9-1,.11-1.66,0-2.58.22,0-.28-.57-.06-.79-.14,0-.34-.53-.2-.56-.53-.25,0,0-.59-.39-.54s-.51.34-.82.4a6.72,6.72,0,0,0-1.35.67c-.19.14-.92.28-1.34.56a5.53,5.53,0,0,1-1.74.39.74.74,0,0,0-.68-.14,2.56,2.56,0,0,1-.67-2.69,3.26,3.26,0,0,0,.67-1.49,14.28,14.28,0,0,0,1.07-1.34c.67-.85,1.57-1.49,2.3-2.28a3.45,3.45,0,0,0,1.21-1.09c.7,0,.9-.53,1.35-.79s1.2-.33,1.48-.81c1.24-.17,2-.79,3.23-1,1,.2,1.4,1.18,1.07,2.31-.23.25-.4.56-.79.67.06.28-.28.2-.28.39s-.34.12-.53.14c-.51-.7.36-1,.39-1.62-.67-.34-1.15.28-2,.14a8.22,8.22,0,0,1-1.35.53c-.39.22-.62.59-1.06.67-.76.45-1.27,1.18-2.17,1.49a15.64,15.64,0,0,1-1.2,1.49c-.34.11-.42.47-.67.67s-.29.62-.68.67a12.28,12.28,0,0,0-.81,2.42c.81.47,1.54-.23,2.3-.26,0-.25.22-.16.39-.28a2.91,2.91,0,0,0,.39-.25c.26-.14.85-.14.82-.56a1,1,0,0,0,.81-.14c.31,0,.25-.45.68-.39.11-.56.47-.87.53-1.49.28-.31.67-.51.67-1.07,1.1-.36,1.12-1.76,2.7-1.62.33.14.33.59.53.81.08.84-.65.87-.67,1.63A2.73,2.73,0,0,0,31.88,81a2.24,2.24,0,0,0-.81.68c-.2.19-.73.28-.54.81-.14.48.59.14.68.39a4.17,4.17,0,0,1,.81-.11c.45-.14.79,0,1.21-.25s.92-.34,1.34-.53L37,80.89a3.71,3.71,0,0,1,1.12-.81c.56-.31,1-.71,1.68-1.07C39.79,79,40.13,80,40.21,80Z"/><path class="cls-1" d="M49,80.58a15.78,15.78,0,0,1-1.69,1.66c-.36.16-.64.73-1,.73C46,83.19,45,84,44.9,84s-.67.53-1,.53l-.17,0c-.25,0-1.29.47-1.68.56a9.58,9.58,0,0,0-1.21.14,4.66,4.66,0,0,1-2.16-.68,4.15,4.15,0,0,1-.42-1.62,9.22,9.22,0,0,1,1.63-4.3c.17-.28.31-.73.53-1.09,1.1-1.8,2.3-3.65,3.51-5.39a2.94,2.94,0,0,0,.42-.81,3.83,3.83,0,0,0,1.35-1.88c1.54-1.26,1.71-2.3,4.15-4.57.76-.71,2.3-1.21,2.3-1.63.34,0,.45.17.76.17a.54.54,0,0,0,.2,0,4,4,0,0,1,.28,1.23,9.64,9.64,0,0,1-.85,3.23c-.14.25-.39.34-.39.67A17.17,17.17,0,0,1,48,74.86a6.41,6.41,0,0,0-1.6,1.88,4.91,4.91,0,0,0-2,1.48c-.25,0-.25.09-.28.28a6.39,6.39,0,0,0-1.63.82c-.33.45-1.06.53-1.2,1.2-.59.09-.73.62-1.35.68a6.66,6.66,0,0,0-.28,1.57c0,.9.62,1,1.18,1,2.21,0,4.23-1.49,5.38-2.27a17.76,17.76,0,0,0,3-2.42A7.32,7.32,0,0,1,49,80.58Zm1.79-14.87c-.61.76-1.48,1.49-2,2.16-.3.39-1.34,1.32-1.34,1.46,0,.45-.4.45-.4,1a2.13,2.13,0,0,0-1.23,1.63c-.93.5-1.26,1.68-1.46,1.88s-.36,0-.42.14c-.17,1.18-.67,1.15-.67,1.43s-.28.09-.28.23-.43.89-.62.89c0,0-.34.85-.34.73a5.2,5.2,0,0,1-1,1.63c1,0,3.23-2.47,4.07-2.92.06,0,.14,0,.17,0,.31,0,1.32-1.29,1.65-1.63,1.1-1.09,2-2.35,3.09-3.51a14.63,14.63,0,0,1,1-2.16c.17.09.15-.08.15-.19A5.53,5.53,0,0,1,52,66.52a.72.72,0,0,1,0-.25c0-.42.26-.7.26-1S52,65,51.8,65C51.38,65,51.08,65.43,50.79,65.71Z"/><path class="cls-1" d="M58.82,80.58a16.49,16.49,0,0,1-1.68,1.66c-.37.16-.65.73-1,.73-.34.22-1.29,1.06-1.41,1.06s-.67.53-1,.53l-.16,0c-.26,0-1.3.47-1.69.56a9.09,9.09,0,0,0-1.2.14,4.66,4.66,0,0,1-2.17-.68,4.15,4.15,0,0,1-.42-1.62,9.22,9.22,0,0,1,1.63-4.3c.17-.28.31-.73.53-1.09,1.1-1.8,2.31-3.65,3.51-5.39a2.94,2.94,0,0,0,.42-.81,3.83,3.83,0,0,0,1.35-1.88c1.54-1.26,1.71-2.3,4.15-4.57.76-.71,2.3-1.21,2.3-1.63.34,0,.45.17.76.17a.54.54,0,0,0,.2,0,4,4,0,0,1,.28,1.23,9.85,9.85,0,0,1-.84,3.23c-.14.25-.4.34-.4.67a17.17,17.17,0,0,1-4.18,6.32,6.41,6.41,0,0,0-1.6,1.88,4.91,4.91,0,0,0-2,1.48c-.25,0-.25.09-.28.28a6.39,6.39,0,0,0-1.63.82c-.33.45-1.06.53-1.2,1.2-.59.09-.73.62-1.35.68a6.66,6.66,0,0,0-.28,1.57c0,.9.62,1,1.18,1,2.22,0,4.24-1.49,5.39-2.27a18.59,18.59,0,0,0,3-2.42A8,8,0,0,1,58.82,80.58Zm1.8-14.87c-.62.76-1.49,1.49-2,2.16-.31.39-1.35,1.32-1.35,1.46,0,.45-.39.45-.39,1a2.12,2.12,0,0,0-1.24,1.63c-.92.5-1.26,1.68-1.46,1.88s-.36,0-.42.14c-.17,1.18-.67,1.15-.67,1.43s-.28.09-.28.23-.42.89-.62.89c0,0-.34.85-.34.73a5.2,5.2,0,0,1-1,1.63c1,0,3.23-2.47,4.07-2.92.06,0,.14,0,.17,0,.31,0,1.32-1.29,1.66-1.63,1.09-1.09,2-2.35,3.08-3.51a13.71,13.71,0,0,1,1-2.16c.17.09.14-.08.14-.19a5.53,5.53,0,0,1,.92-1.94,1.06,1.06,0,0,1,0-.25c0-.42.25-.7.25-1s-.23-.34-.42-.34C61.21,65,60.9,65.43,60.62,65.71Z"/><path class="cls-1" d="M60,77.16a6,6,0,0,1,.67-.54c.82-.11,1.15-.7,1.88-.92a11.87,11.87,0,0,0,1.1-1.24,11.24,11.24,0,0,1,2.13-.53c.45.34,1.4.7,1.37,1.49a5.31,5.31,0,0,1,.34,1.46c0,.05.17.11.39.05.4-.08,0,0,.42-.11a2.08,2.08,0,0,1,1.15-.06,3,3,0,0,1-.67,1.18s-.17.06-.39.14c-.45.17-.17,0-.59.2s-.51.22-.51.25A8.21,8.21,0,0,1,65.7,81c-.17.16-.87.56-.79.81-.34,0-.22.31-.56.67a14.59,14.59,0,0,1-3.23,2,7.19,7.19,0,0,1-3-.14,5.45,5.45,0,0,1-.28-2.55,9.1,9.1,0,0,1,.42-1c.05-.12.34-.17.39-.29s.06-.36.14-.53a6.49,6.49,0,0,1,.93-1.68A6.92,6.92,0,0,0,60,77.16Zm1.49,1.62c-.34,0-.4.34-.54.54-.56.7-.95,1.57-1.48,2.16,0,.59-.4.78-.29,1.49h1.38a5.48,5.48,0,0,0,1.35-.68c.11-.11.11-.05.28-.14.42-.25.67-.73,1.2-.81a9,9,0,0,1,.82-.93,4.18,4.18,0,0,1,.92-.81c.2-.34.42-.34.42-.79a4.7,4.7,0,0,1-1.9.37c-.2-.17-.59-.12-1-.12-.36-.22-.62-.56-1.06-.67C61.63,78.56,61.46,78.56,61.52,78.78Zm3.36-2.69a1.24,1.24,0,0,1-.95.53c-.09.28-.76.68-.39,1,0-.23.19,0,.14.25a5.36,5.36,0,0,0,2.44-.39c-.06-.54.11-1.29-.14-1.63a5,5,0,0,0-1-.11C65,75.87,64.83,75.87,64.88,76.09Z"/><path class="cls-1" d="M96.09,78.25c-.76,1.15-1.66.79-2.78,1.26-1.07.17-1.8.45-2.81.68-.31,0-.73,0-1,.28a7.29,7.29,0,0,1-.93-.28c-.53.33-.81,1.37-1.23,1.88-1,1.26-3.45,3-5.47,3-1.13,0-1.52-1.12-1.52-2.22a20.79,20.79,0,0,1,.54-2.94c-.62,0-.85.53-1.21.81a6.09,6.09,0,0,1-1.21.81,4.37,4.37,0,0,1-1.63,1.35c-.36.59-1.17.7-1.62,1.21-1.27.31-2.53,1.29-3.93,1.29a2.82,2.82,0,0,1-1-.2,2.67,2.67,0,0,1-.45-1.48,2.81,2.81,0,0,1,.17-1c.25-.25.08-.5.28-.93,0-.08.22-.22.25-.28.11-.22.06-.36.14-.53s.26-.19.28-.28c.12-.25,0-.64.26-.81a13.65,13.65,0,0,1,.67-1.21c.06-.08.06-.28.14-.39s.25-.09.28-.14a2.82,2.82,0,0,1,.25-.54c.14-.19.42-.36.42-.67a.18.18,0,0,0,.12,0c.36,0,1.48-1.85,2.47-1.85.3,0,.78.28.78.61s-.73,1.07-.81,1.07a12.87,12.87,0,0,0-1.88,1.63c-.31.33-.4.81-.82,1.06C72.43,81,71.51,82,71.23,83.7a.9.9,0,0,0,.61.22c.59,0,1.18-.56,1.83-.65s1-.73,1.74-.78a10.42,10.42,0,0,1,1.48-1,11.81,11.81,0,0,1,1.83-1.62,10.73,10.73,0,0,0,2.75-2.42c.53-.87,1.57-2.16,2.3-2.16,0,.26.28.06.28.2s0,.14,0,.2.23.25.23.47c0,.42-.37.59-.62,1-1,2.42-1.77,3.9-1.77,5.62,0,.5,0,.84.81.84s.54-.31.82-.51.36,0,.53-.14.31-.33.42-.42a8.27,8.27,0,0,0,3.23-3.48c0-.48-.17-.87-.17-1.4a2.18,2.18,0,0,1,.56-1.43c.06-.48.23-.87.68-1,.61.14.75.54.75,1.07s-.19,1.4-.19,2a.75.75,0,0,0,.7.36c1.35,0,2.38-.61,4-.92a5.38,5.38,0,0,1,1.83-.65C96.17,77.24,96,77.89,96.09,78.25Z"/><path class="cls-1" d="M35.69,102.41c0,.28,0,.46,0,.65s0,.38,0,.68v0a.32.32,0,0,1-.33.31.34.34,0,0,1-.36-.34c0-1-1.16-1-1.23-1-.68,0-1.06.4-1.06.83a1,1,0,0,0,.64.86c.36.17,1,.43,1.39.64a1.84,1.84,0,0,1,1.16,1.61,1.82,1.82,0,0,1-2.06,1.68,2.08,2.08,0,0,1-1.3-.43.12.12,0,0,0-.09,0s0,0,0,.06c0,.33-.15.36-.31.36a.31.31,0,0,1-.34-.31v0c0-.29,0-.48,0-.68s0-.39,0-.7v0a.34.34,0,0,1,.37-.34.34.34,0,0,1,.35.36c0,.09,0,.15,0,.24,0,.43.65.86,1.39.86s1.3-.38,1.3-1-.57-1-2.08-1.63A1.56,1.56,0,0,1,32,103.57a1.58,1.58,0,0,1,1.77-1.49,2,2,0,0,1,1.14.35.12.12,0,0,0,.08,0c.06,0,0-.11.06-.15a.29.29,0,0,1,.3-.21.3.3,0,0,1,.33.31Z"/><path class="cls-1" d="M43.58,108.13l-1,0-.94,0a.33.33,0,0,1-.39-.33.36.36,0,0,1,.38-.37h0c.17,0,.18,0,.39,0a.21.21,0,0,0,.21-.23c0-.42,0-.92,0-1.4,0-.68,0-1.29,0-1.53a1.46,1.46,0,0,0-1.49-1.54,1.91,1.91,0,0,0-1.94,1.71c0,.24,0,.63,0,1.1s0,1,0,1.66a.21.21,0,0,0,.22.23,2.17,2.17,0,0,0,.37,0,.35.35,0,1,1,0,.7h0l-1,0-1,0a.33.33,0,0,1-.39-.33.36.36,0,0,1,.38-.37h0c.17,0,.21,0,.42,0a.2.2,0,0,0,.21-.23c0-1,0-2.69,0-4.25,0-1.1,0-2.16,0-2.93,0-.34-.1-.52-.44-.54l-.29,0h0a.36.36,0,0,1-.36-.37c0-.22.1-.39.66-.39a1.73,1.73,0,0,1,.32,0,.9.9,0,0,1,.89,1v.75c0,1,0,2.22,0,2.4s0,.07,0,.07l0,0a2.44,2.44,0,0,1,1.93-.89A2.06,2.06,0,0,1,43,104.14c0,.55,0,2,0,3.07a.21.21,0,0,0,.23.24c.19,0,.18,0,.36,0h0a.35.35,0,0,1,.38.35.34.34,0,0,1-.38.35Z"/><path class="cls-1" d="M44.93,105.18a3,3,0,1,1,3,3.12A3,3,0,0,1,44.93,105.18Zm5.27,0a2.26,2.26,0,1,0-2.27,2.43A2.28,2.28,0,0,0,50.2,105.18Z"/><path class="cls-1" d="M54.49,111.49H52.42a.31.31,0,0,1-.36-.35.32.32,0,0,1,.33-.35h.45c.18,0,.24-.12.24-.31,0-1.3,0-3.32,0-5v-1.89c0-.38-.12-.62-.46-.64-.12,0-.09,0-.26,0h0a.36.36,0,0,1-.37-.37.36.36,0,0,1,.38-.36h.43a.93.93,0,0,1,1,.83c0,.1,0,.21,0,.21s0,0,.1-.11a2.69,2.69,0,0,1,2.15-1,3.09,3.09,0,0,1,0,6.17,2.65,2.65,0,0,1-2.07-1c-.08-.09-.11-.15-.13-.15s0,.06,0,.2v3.1c0,.17.06.3.3.3s.18,0,.37,0h0a.33.33,0,0,1,.33.35.34.34,0,0,1-.36.37Zm3.75-6.28a2.22,2.22,0,1,0-2.21,2.4A2.24,2.24,0,0,0,58.24,105.21Z"/><path class="cls-1" d="M73.12,0A57.52,57.52,0,0,0,26.78,23.36a6.79,6.79,0,0,1,1.89.81,55.63,55.63,0,1,1,44.45,89.08,1,1,0,0,0,0,2A57.63,57.63,0,1,0,73.12,0Z"/><path class="cls-1" d="M29.82,29.83a4.68,4.68,0,1,1-4.67-4.68c.11,0,.22,0,.34,0q.63-.93,1.29-1.83a6.68,6.68,0,1,0,5,6.47,6.66,6.66,0,0,0-3.15-5.66c-.4.54-.79,1.08-1.18,1.64A4.65,4.65,0,0,1,29.82,29.83Z"/><path class="cls-1" d="M25.49,25.19a4.56,4.56,0,0,1,2,.62c.39-.56.78-1.1,1.18-1.64a6.79,6.79,0,0,0-1.89-.81Q26.12,24.26,25.49,25.19Z"/></g></g></svg>